<svg width="35" height="33" viewBox="0 0 35 33" fill="none" xmlns="http://www.w3.org/2000/svg">
<g clip-path="url(#clip0_1_221397)">
<path d="M1.02193 11.8124C1.05544 11.8621 10.8727 28.3105 11.3083 28.9565C11.9281 29.9007 12.7658 30.6958 13.7877 31.2921C14.9269 31.9546 16.2337 32.3025 17.5572 32.3025C20.1874 32.3025 22.6668 30.9111 23.9903 28.6583L33.8243 12.1271C34.8295 10.421 35.1143 8.43329 34.6117 6.5284C34.1091 4.6235 32.8862 3.01676 31.1606 2.0229C30.0214 1.36033 28.7147 1.01248 27.3912 1.01248C24.7442 1.01248 10.1021 0.697754 7.45509 0.697754C6.1316 0.697754 4.82487 1.0456 3.68566 1.70818C0.134024 3.77872 -1.05544 8.30078 1.02193 11.8124Z" fill="url(#paint0_linear_1_221397)"/>
<path d="M30.7892 11.1712C31.951 9.33298 31.2849 6.94909 29.3021 5.87204C27.3194 4.79498 24.748 5.41249 23.5862 7.25067L14.5089 21.5827C13.3471 23.4209 14.0132 25.8048 15.996 26.8818C17.9787 27.9589 20.5501 27.3414 21.7119 25.5032L30.7892 11.1712Z" fill="white"/>
<path d="M4.04762 9.98364C4.04762 9.98364 6.52112 13.9715 8.24647 16.6872C10.7963 20.7179 12.0178 19.5173 13.8348 16.7158C14.9646 14.972 16.3388 12.7994 17.4229 11.0985C17.1786 11.1414 14.8272 11.999 13.0255 9.22609C12.4301 8.31132 11.1475 6.08156 11.1475 6.08156C10.0024 4.25201 7.46777 3.63739 5.5134 4.70939C3.55902 5.7814 2.90247 8.15409 4.04762 9.98364Z" fill="white"/>
</g>
<defs>
<linearGradient id="paint0_linear_1_221397" x1="-4.47784" y1="37.8242" x2="42.25" y2="17.9059" gradientUnits="userSpaceOnUse">
<stop stop-color="#5D67E4"/>
<stop offset="0.544792" stop-color="#A84CA7"/>
<stop offset="1" stop-color="#E64376"/>
</linearGradient>
<clipPath id="clip0_1_221397">
<rect width="34.8463" height="31.6047" fill="white" transform="translate(0 0.697754)"/>
</clipPath>
</defs>
</svg>
