<svg width="24" height="25" viewBox="0 0 24 25" fill="none" xmlns="http://www.w3.org/2000/svg">
<path fill-rule="evenodd" clip-rule="evenodd" d="M15.663 4.27525C13.8902 3.48535 11.9096 3.28967 10.0166 3.71738C8.12351 4.14509 6.41942 5.17328 5.15845 6.64861C3.89749 8.12394 3.14721 9.96735 3.01951 11.9039C2.89181 13.8405 3.39354 15.7665 4.44987 17.3946C5.50619 19.0227 7.06051 20.2658 8.88102 20.9384C10.7015 21.611 12.6907 21.677 14.5518 21.1268C16.413 20.5765 18.0464 19.4393 19.2084 17.8849C20.3705 16.3305 20.9989 14.442 21 12.5012V11.5818C21 11.0295 21.4477 10.5818 22 10.5818C22.5523 10.5818 23 11.0295 23 11.5818V12.5018C22.9986 14.8739 22.2306 17.1825 20.8103 19.0824C19.39 20.9823 17.3936 22.3721 15.1189 23.0447C12.8442 23.7172 10.413 23.6365 8.18792 22.8144C5.96285 21.9924 4.06312 20.4731 2.77206 18.4832C1.48099 16.4932 0.86777 14.1393 1.02384 11.7723C1.17992 9.40541 2.09693 7.15235 3.63811 5.34917C5.17929 3.54599 7.26206 2.28931 9.57581 1.76655C11.8896 1.24379 14.3103 1.48296 16.477 2.44839C16.9815 2.67317 17.2082 3.26435 16.9834 3.76882C16.7587 4.27329 16.1675 4.50003 15.663 4.27525Z" fill="url(#paint0_linear_1_224648)"/>
<path fill-rule="evenodd" clip-rule="evenodd" d="M22.7068 3.79436C23.0975 4.18469 23.0978 4.81785 22.7075 5.20857L12.7075 15.2186C12.52 15.4063 12.2656 15.5118 12.0003 15.5118C11.735 15.5119 11.4805 15.4065 11.2929 15.2189L8.2929 12.2189C7.90238 11.8284 7.90238 11.1952 8.2929 10.8047C8.68342 10.4142 9.31659 10.4142 9.70711 10.8047L11.9997 13.0973L21.2925 3.79507C21.6829 3.40435 22.316 3.40403 22.7068 3.79436Z" fill="url(#paint1_linear_1_224648)"/>
<defs>
<linearGradient id="paint0_linear_1_224648" x1="-1.82639" y1="27.3398" x2="28.4969" y2="15.6193" gradientUnits="userSpaceOnUse">
<stop stop-color="#5D67E4"/>
<stop offset="0.544792" stop-color="#A84CA7"/>
<stop offset="1" stop-color="#E64376"/>
</linearGradient>
<linearGradient id="paint1_linear_1_224648" x1="-1.82639" y1="27.3398" x2="28.4969" y2="15.6193" gradientUnits="userSpaceOnUse">
<stop stop-color="#5D67E4"/>
<stop offset="0.544792" stop-color="#A84CA7"/>
<stop offset="1" stop-color="#E64376"/>
</linearGradient>
</defs>
</svg>
