<svg width="40" height="40" viewBox="0 0 40 40" fill="none" xmlns="http://www.w3.org/2000/svg">
<g clip-path="url(#clip0_1_224626)">
<path d="M39.3152 7.15454C38.9511 3.74328 36.257 1.04858 32.8454 0.684814C24.2901 -0.228271 15.7098 -0.228271 7.15484 0.684814C3.74328 1.04889 1.04889 3.74328 0.684814 7.15454C-0.228271 15.7095 -0.228271 24.2901 0.684814 32.8451C1.04889 36.2567 3.74328 38.9511 7.15454 39.3152C15.7095 40.2282 24.2901 40.2282 32.8454 39.3152C36.257 38.9511 38.9511 36.2567 39.3152 32.8451C40.2282 24.2901 40.2282 15.7098 39.3152 7.15454Z" fill="url(#paint0_radial_1_224626)"/>
<path d="M37.1408 8.60263C36.8179 5.57559 34.4272 3.18454 31.3998 2.86136C23.8083 2.05142 16.1942 2.05142 8.60263 2.86136C5.57559 3.18454 3.18454 5.57559 2.86136 8.60263C2.05142 16.1942 2.05142 23.8083 2.86136 31.3995C3.18454 34.4269 5.57559 36.8179 8.60263 37.1408C16.1942 37.951 23.8083 37.951 31.3995 37.1408C34.4269 36.8179 36.8179 34.4269 37.1408 31.3995C37.951 23.8083 37.951 16.1942 37.1408 8.60263Z" fill="url(#paint1_linear_1_224626)"/>
<path d="M0.599609 32.0156C0.627075 32.2921 0.655457 32.5686 0.685059 32.8451C1.04913 36.2563 3.74353 38.9507 7.15509 39.3148C15.7101 40.2279 24.2907 40.2279 32.8457 39.3148C36.2572 38.9507 38.9513 36.2563 39.3154 32.8451C39.345 32.5686 39.3734 32.2921 39.4012 32.0156H0.599609Z" fill="url(#paint2_linear_1_224626)"/>
<path d="M39.316 32.8438C39.8067 28.2469 40.0331 23.6428 39.9965 19.0392L30.8534 9.89612C29.7112 8.59211 28.0428 7.7782 26.0823 7.70771C22.0506 7.56244 18.0062 7.56977 13.9739 7.70832C10.6249 7.82367 8.28296 10.0746 7.68237 13.3831C7.57648 13.9672 7.513 14.5589 7.42969 15.1473V24.8464C7.47577 25.1607 7.54352 25.4735 7.56458 25.7897C7.69885 27.802 8.52588 29.5256 9.85003 30.6917L19.1542 39.9956C23.7203 40.0276 28.2866 39.8006 32.8462 39.3138C36.2578 38.9498 38.9519 36.2554 39.316 32.8438Z" fill="url(#paint3_linear_1_224626)"/>
<path d="M39.3149 32.8442C38.9511 36.2552 36.2561 38.9502 32.8451 39.3139C28.2861 39.8004 23.7189 40.0277 19.1534 39.9957L9.86328 30.7055C10.9402 31.6482 12.3441 32.2223 13.9731 32.2836C18.0044 32.435 22.0499 32.431 26.0812 32.2857C29.7275 32.1539 32.366 29.4552 32.4798 25.809C32.6013 21.9376 32.6013 18.056 32.4798 14.1846C32.428 12.5024 31.8374 11.0223 30.8584 9.90234L39.9957 19.0396C40.0317 23.6426 39.8053 28.2474 39.3149 32.8442Z" fill="url(#paint4_linear_1_224626)"/>
<path d="M24.7204 15.6692C23.5492 14.3939 21.8686 13.5938 20.0006 13.5938C16.4624 13.5938 13.5938 16.4624 13.5938 20.0006C13.5938 21.8686 14.3939 23.5492 15.6692 24.7204L30.4925 39.5437C31.2771 39.4754 32.0618 39.3994 32.8457 39.3158C36.2573 38.9517 38.9517 36.2573 39.3158 32.8457C39.3994 32.0618 39.4754 31.2771 39.5437 30.4925L24.7204 15.6692Z" fill="url(#paint5_linear_1_224626)"/>
<path d="M39.9236 24.3094L27.9937 12.3798C27.7154 12.0145 27.2769 11.7773 26.7822 11.7773C25.9405 11.7773 25.2578 12.4597 25.2578 13.3017C25.2578 13.7964 25.4949 14.2349 25.8602 14.5132L39.7103 28.3636C39.8043 27.0126 39.8754 25.661 39.9236 24.3094Z" fill="url(#paint6_linear_1_224626)"/>
<path d="M7.42969 15.1473C7.513 14.5589 7.57648 13.9672 7.68237 13.3831C8.28265 10.0746 10.6249 7.82367 13.9739 7.70832C18.0062 7.56977 22.0506 7.56244 26.0823 7.70771C29.7273 7.83893 32.3671 10.5379 32.4809 14.1841C32.6021 18.0559 32.6021 21.9371 32.4809 25.8089C32.3671 29.4551 29.7283 32.1538 26.0826 32.2853C22.051 32.4309 18.0055 32.4346 13.9742 32.2832C10.3285 32.1462 7.80841 29.4411 7.56458 25.7894C7.54352 25.4735 7.47577 25.1604 7.42969 24.8461C7.42969 21.613 7.42969 18.38 7.42969 15.1473ZM20.0041 30.1244C21.8492 30.1244 23.6962 30.1796 25.5388 30.1116C28.4279 30.0044 30.2049 28.2802 30.2724 25.3939C30.356 21.7974 30.356 18.196 30.2724 14.5992C30.2049 11.7134 28.4267 9.94892 25.5388 9.88758C21.8733 9.81006 18.2039 9.81067 14.5384 9.88758C11.6725 9.9477 9.89032 11.6765 9.8125 14.5305C9.71362 18.1725 9.71362 21.8209 9.8125 25.4628C9.89032 28.3165 11.6725 30.0054 14.5388 30.1116C16.3582 30.1793 18.1822 30.1244 20.0041 30.1244Z" fill="url(#paint7_linear_1_224626)"/>
<path d="M7.42969 15.1473C7.513 14.5589 7.57648 13.9672 7.68237 13.3831C8.28265 10.0746 10.6249 7.82367 13.9739 7.70832C18.0062 7.56977 22.0506 7.56244 26.0823 7.70771C29.7273 7.83893 32.3671 10.5379 32.4809 14.1841C32.6021 18.0559 32.6021 21.9371 32.4809 25.8089C32.3671 29.4551 29.7283 32.1538 26.0826 32.2853C22.051 32.4309 18.0055 32.4346 13.9742 32.2832C10.3285 32.1462 7.80841 29.4411 7.56458 25.7894C7.54352 25.4735 7.47577 25.1604 7.42969 24.8461C7.42969 21.613 7.42969 18.38 7.42969 15.1473ZM20.0041 30.1244C21.8492 30.1244 23.6962 30.1796 25.5388 30.1116C28.4279 30.0044 30.2049 28.2802 30.2724 25.3939C30.356 21.7974 30.356 18.196 30.2724 14.5992C30.2049 11.7134 28.4267 9.94892 25.5388 9.88758C21.8733 9.81006 18.2039 9.81067 14.5384 9.88758C11.6725 9.9477 9.89032 11.6765 9.8125 14.5305C9.71362 18.1725 9.71362 21.8209 9.8125 25.4628C9.89032 28.3165 11.6725 30.0054 14.5388 30.1116C16.3582 30.1793 18.1822 30.1244 20.0041 30.1244Z" fill="white"/>
<path d="M20.0006 13.5938C16.4624 13.5938 13.5938 16.4621 13.5938 20.0003C13.5938 23.5388 16.4624 26.4072 20.0006 26.4072C23.5391 26.4072 26.4075 23.5388 26.4075 20.0003C26.4075 16.4621 23.5391 13.5938 20.0006 13.5938ZM20.0006 24.2013C17.6804 24.2013 15.7996 22.3205 15.7996 20.0003C15.7996 17.6801 17.6804 15.7993 20.0006 15.7993C22.3209 15.7993 24.2017 17.6801 24.2017 20.0003C24.2017 22.3205 22.3209 24.2013 20.0006 24.2013Z" fill="white"/>
<path d="M28.3062 13.3017C28.3062 14.1434 27.6238 14.8257 26.7822 14.8257C25.9405 14.8257 25.2578 14.1434 25.2578 13.3017C25.2578 12.4597 25.9405 11.7773 26.7822 11.7773C27.6238 11.7773 28.3062 12.4597 28.3062 13.3017Z" fill="white"/>
</g>
<defs>
<radialGradient id="paint0_radial_1_224626" cx="0" cy="0" r="1" gradientUnits="userSpaceOnUse" gradientTransform="translate(8.19977 34.9568) scale(44.1129)">
<stop stop-color="#FAE100"/>
<stop offset="0.0544" stop-color="#FADC04"/>
<stop offset="0.1167" stop-color="#FBCE0E"/>
<stop offset="0.1829" stop-color="#FCB720"/>
<stop offset="0.2514" stop-color="#FE9838"/>
<stop offset="0.3054" stop-color="#FF7950"/>
<stop offset="0.4922" stop-color="#FF1C74"/>
<stop offset="1" stop-color="#6C1CD1"/>
</radialGradient>
<linearGradient id="paint1_linear_1_224626" x1="15.3429" y1="17.3809" x2="-52.4218" y2="-20.7367" gradientUnits="userSpaceOnUse">
<stop stop-color="#A1B5D8" stop-opacity="0"/>
<stop offset="0.3094" stop-color="#90A2BD" stop-opacity="0.309804"/>
<stop offset="0.7554" stop-color="#7C8B9C" stop-opacity="0.756863"/>
<stop offset="1" stop-color="#748290"/>
</linearGradient>
<linearGradient id="paint2_linear_1_224626" x1="20.0003" y1="35.3095" x2="20.0003" y2="41.5445" gradientUnits="userSpaceOnUse">
<stop stop-color="#FAE100" stop-opacity="0"/>
<stop offset="0.3068" stop-color="#FCA800" stop-opacity="0.305882"/>
<stop offset="0.6275" stop-color="#FE7300" stop-opacity="0.627451"/>
<stop offset="0.8685" stop-color="#FF5200" stop-opacity="0.866667"/>
<stop offset="1" stop-color="#FF4500"/>
</linearGradient>
<linearGradient id="paint3_linear_1_224626" x1="17.7252" y1="17.6665" x2="7.82585" y2="7.76711" gradientUnits="userSpaceOnUse">
<stop stop-color="#833AB4" stop-opacity="0"/>
<stop offset="1" stop-color="#833AB4"/>
</linearGradient>
<linearGradient id="paint4_linear_1_224626" x1="27.4137" y1="36.5837" x2="22.4728" y2="13.2908" gradientUnits="userSpaceOnUse">
<stop stop-color="#833AB4" stop-opacity="0"/>
<stop offset="1" stop-color="#833AB4"/>
</linearGradient>
<linearGradient id="paint5_linear_1_224626" x1="29.2947" y1="29.2947" x2="9.44913" y2="9.44912" gradientUnits="userSpaceOnUse">
<stop stop-color="#833AB4" stop-opacity="0"/>
<stop offset="1" stop-color="#833AB4"/>
</linearGradient>
<linearGradient id="paint6_linear_1_224626" x1="30.7673" y1="17.2868" x2="24.2047" y2="10.7242" gradientUnits="userSpaceOnUse">
<stop stop-color="#833AB4" stop-opacity="0"/>
<stop offset="1" stop-color="#833AB4"/>
</linearGradient>
<linearGradient id="paint7_linear_1_224626" x1="27.9428" y1="12.1119" x2="11.7619" y2="28.2928" gradientUnits="userSpaceOnUse">
<stop stop-color="#833AB4"/>
<stop offset="0.0922" stop-color="#9C3495"/>
<stop offset="0.2927" stop-color="#DC2546"/>
<stop offset="0.392" stop-color="#FD1D1D"/>
<stop offset="0.5589" stop-color="#FC6831"/>
<stop offset="0.6887" stop-color="#FC9B40"/>
<stop offset="0.7521" stop-color="#FCAF45"/>
<stop offset="0.7806" stop-color="#FDB750"/>
<stop offset="0.8656" stop-color="#FECB6A"/>
<stop offset="0.9415" stop-color="#FFD87A"/>
<stop offset="1" stop-color="#FFDC80"/>
</linearGradient>
<clipPath id="clip0_1_224626">
<rect width="40" height="40" fill="white"/>
</clipPath>
</defs>
</svg>
